<svg xmlns="http://www.w3.org/2000/svg" viewBox="0 0 380 70" fill="none"><defs><filter id="glow" x="-50%" y="-50%" width="200%" height="200%"><feGaussianBlur stdDeviation="2.5" result="b"/><feMerge><feMergeNode in="b"/><feMergeNode in="SourceGraphic"/></feMerge></filter></defs><line x1="58" y1="30" x2="102" y2="30" stroke="#1F1F2E" stroke-width="1.5" stroke-dasharray="4,3"/><polygon points="96,25 102,30 96,35" fill="#1F1F2E"/><line x1="158" y1="30" x2="202" y2="30" stroke="#1F1F2E" stroke-width="1.5" stroke-dasharray="4,3"/><polygon points="196,25 202,30 196,35" fill="#1F1F2E"/><line x1="258" y1="30" x2="302" y2="30" stroke="#1F1F2E" stroke-width="1.5" stroke-dasharray="4,3"/><polygon points="296,25 302,30 296,35" fill="#1F1F2E"/><circle cx="30" cy="30" r="18" fill="#666677" fill-opacity="0.15" stroke="#666677" stroke-width="1.5" /><text x="30" y="34" text-anchor="middle" font-family="'IBM Plex Mono', monospace" font-size="9" fill="#666677">Input</text><text x="30" y="58" text-anchor="middle" font-family="'IBM Plex Mono', monospace" font-size="9" fill="#666677">Input</text><circle cx="130" cy="30" r="18" fill="#FFD700" fill-opacity="0.15" stroke="#FFD700" stroke-width="1.5" filter="url(#glow)"/><text x="130" y="34" text-anchor="middle" font-family="'IBM Plex Mono', monospace" font-size="9" fill="#FFD700">Qwen</text><text x="130" y="58" text-anchor="middle" font-family="'IBM Plex Mono', monospace" font-size="9" fill="#666677">Qwen 3.5</text><circle cx="230" cy="30" r="18" fill="#00F0FF" fill-opacity="0.15" stroke="#00F0FF" stroke-width="1.5" filter="url(#glow)"/><text x="230" y="34" text-anchor="middle" font-family="'IBM Plex Mono', monospace" font-size="9" fill="#00F0FF">Ollama</text><text x="230" y="58" text-anchor="middle" font-family="'IBM Plex Mono', monospace" font-size="9" fill="#666677">Ollama</text><circle cx="330" cy="30" r="18" fill="#666677" fill-opacity="0.15" stroke="#666677" stroke-width="1.5" /><text x="330" y="34" text-anchor="middle" font-family="'IBM Plex Mono', monospace" font-size="9" fill="#666677">Cloud</text><text x="330" y="58" text-anchor="middle" font-family="'IBM Plex Mono', monospace" font-size="9" fill="#666677">Cloud</text></svg>